# Blender v3.0.0 OBJ File: 'house.blend'
# www.blender.org
o Cube
v -1.000000 -1.000000 2.000000
v -1.000000 -1.000000 0.000000
v -1.000000 1.000000 2.000000
v -1.000000 1.000000 0.000000
v 1.000000 -1.000000 2.000000
v 1.000000 -1.000000 0.000000
v 1.000000 1.000000 2.000000
v 1.000000 1.000000 0.000000
vt 0.625000 0.500000
vt 0.875000 0.500000
vt 0.875000 0.750000
vt 0.625000 0.750000
vt 0.375000 0.750000
vt 0.625000 1.000000
vt 0.375000 1.000000
vt 0.375000 0.000000
vt 0.625000 0.000000
vt 0.625000 0.250000
vt 0.375000 0.250000
vt 0.125000 0.500000
vt 0.375000 0.500000
vt 0.125000 0.750000
vn 0.0000 0.0000 1.0000
vn 0.0000 1.0000 0.0000
vn 1.0000 0.0000 0.0000
vn 0.0000 0.0000 -1.0000
vn -1.0000 0.0000 0.0000
vn 0.0000 -1.0000 0.0000
s off
f 1/1/1 5/2/1 7/3/1 3/4/1
f 4/5/2 3/4/2 7/6/2 8/7/2
f 8/8/3 7/9/3 5/10/3 6/11/3
f 6/12/4 2/13/4 4/5/4 8/14/4
f 2/13/5 1/1/5 3/4/5 4/5/5
f 6/11/6 5/10/6 1/1/6 2/13/6
o Cube.001
v 0.000000 0.707107 0.000000
v 0.000000 0.707107 0.581941
v -0.353553 0.353553 0.000000
v -0.353553 0.353553 1.000000
v -0.074546 0.632561 0.581941
v -0.074546 0.632561 0.000000
v 0.353553 0.353553 0.000000
v 0.353553 0.353553 0.581941
v 0.000000 0.000000 0.000000
v 0.279007 0.279007 0.000000
v 0.000000 0.707107 0.581941
v -0.353553 0.353553 1.000000
v -0.074546 0.632561 0.581941
v 0.353553 0.353553 0.581941
v 0.000000 0.000000 1.000000
v 0.279007 0.279007 0.581941
v -0.707107 0.000000 0.000000
v -0.707107 0.000000 0.581941
v -0.632561 0.074546 0.581941
v -0.632561 0.074546 0.000000
v -0.353553 -0.353553 0.000000
v -0.353553 -0.353553 0.581941
v -0.279007 -0.279007 0.000000
v -0.707107 0.000000 0.581941
v -0.632561 0.074546 0.581941
v -0.353553 -0.353553 0.581941
v -0.279007 -0.279007 0.581941
v 0.707107 0.000000 0.000000
v 0.707107 0.000000 0.581941
v 0.353553 -0.353553 0.000000
v 0.353553 -0.353553 1.000000
v 0.632561 -0.074546 0.581941
v 0.632561 -0.074546 0.000000
v 0.707107 0.000000 0.581941
v 0.353553 -0.353553 1.000000
v 0.632561 -0.074546 0.581941
v 0.000000 -0.707107 0.000000
v 0.000000 -0.707107 0.581941
v 0.074546 -0.632561 0.581941
v 0.074546 -0.632561 0.000000
v 0.000000 -0.707107 0.581941
v 0.074546 -0.632561 0.581941
vt 0.001772 0.789077
vt 0.495997 0.789077
vt 0.495997 0.995052
vt 0.001772 0.995052
vt 0.250000 0.687500
vt 0.375000 0.687500
vt 0.375000 0.750000
vt 0.250000 0.750000
vt 0.250000 0.625000
vt 0.375000 0.625000
vt 0.001772 0.018167
vt 0.850999 0.018167
vt 0.001772 0.789077
vt 0.001772 0.995052
vt 0.495997 0.995052
vt 0.495997 0.789077
vt 0.250000 0.687500
vt 0.250000 0.750000
vt 0.375000 0.750000
vt 0.375000 0.687500
vt 0.001772 0.789077
vt 0.001772 0.995052
vt 0.495997 0.995052
vt 0.495997 0.789077
vt 0.375000 0.750000
vt 0.375000 0.687500
vt 0.375000 0.625000
vt 0.001772 0.018167
vt 0.850999 0.018167
vt 0.001772 0.789077
vt 0.495997 0.789077
vt 0.495997 0.995052
vt 0.001772 0.995052
vt 0.375000 0.687500
vt 0.375000 0.750000
vt 0.002676 0.991420
vt 0.491372 0.991420
vt 0.491372 0.004579
vt 0.002676 0.004579
vt 0.620053 0.993609
vt 0.620053 0.006391
vt 0.509840 0.006391
vt 0.509840 0.993609
vt 0.487907 0.006391
vt 0.487907 0.993609
vt 0.002676 0.991420
vt 0.002676 0.004579
vt 0.491372 0.004579
vt 0.491372 0.991420
vt 0.509840 0.993609
vt 0.509840 0.006391
vt 0.487907 0.993609
vt 0.487907 0.006391
vt 0.002676 0.991420
vt 0.491372 0.991420
vt 0.620053 0.993609
vt 0.509840 0.993609
vt 0.487907 0.993609
vt 0.002676 0.991420
vt 0.491372 0.991420
vt 0.509840 0.993609
vt 0.487907 0.993609
vn -0.7071 0.7071 0.0000
vn 0.0000 0.0000 -1.0000
vn 0.7071 -0.7071 0.0000
vn 0.7071 0.7071 0.0000
vn 0.5142 0.5142 0.6864
vn -0.0000 0.0000 1.0000
vn -0.7071 -0.7071 0.0000
vn -0.5142 -0.5142 0.6864
s off
f 14/15/7 13/16/7 10/17/7 9/18/7
f 18/19/8 14/20/8 9/21/8 15/22/8
f 17/23/8 11/24/8 14/20/8 18/19/8
f 11/25/7 12/26/7 13/16/7 14/15/7
f 28/27/7 25/28/7 26/29/7 27/30/7
f 31/31/8 29/32/8 25/33/8 28/34/8
f 17/23/8 31/31/8 28/34/8 11/24/8
f 11/25/7 28/27/7 27/30/7 12/26/7
f 41/35/9 36/36/9 37/37/9 40/38/9
f 18/19/8 15/22/8 36/39/8 41/40/8
f 17/23/8 18/19/8 41/40/8 38/41/8
f 38/42/9 41/35/9 40/38/9 39/43/9
f 48/44/9 47/45/9 46/46/9 45/47/9
f 31/31/8 48/48/8 45/49/8 29/32/8
f 17/23/8 38/41/8 48/48/8 31/31/8
f 38/42/9 39/43/9 47/45/9 48/44/9
f 9/50/10 10/51/10 16/52/10 15/53/10
f 20/54/11 23/55/11 24/56/11 21/57/11
f 21/57/12 24/56/12 22/58/12 19/59/12
f 25/60/13 29/61/13 30/62/13 26/63/13
f 20/54/14 33/64/14 35/65/14 23/55/14
f 33/64/12 32/66/12 34/67/12 35/65/12
f 36/68/10 15/53/10 16/52/10 37/69/10
f 43/70/11 44/71/11 24/56/11 23/55/11
f 44/71/12 42/72/12 22/58/12 24/56/12
f 45/73/13 46/74/13 30/62/13 29/61/13
f 43/70/14 23/55/14 35/65/14 50/75/14
f 50/75/12 35/65/12 34/67/12 49/76/12
